# xmcd
#
# Track frame offsets: 
#        150
#        11460
#        29177
#        43475
#        58750
#        76610
#        102805
#        121167
#        133445
#        152745
#        169720
#        187342
#        200360
#        211595
#
# Disc length: 3000 seconds
#
# Revision: 3
# Processed by: cddbd v1.5.2PL0 Copyright (c) Steve Scherf et al.
# Submitted via: ExactAudioCopy v1.1
#
DISCID=c30bb60e
DTITLE=Louis Armstrong - Kings of the swing
DYEAR=1999
DGENRE=Swing
TTITLE0=Hello, Dolly
TTITLE1=Cabaret
TTITLE2=Blueberry Hill
TTITLE3=Mack, the knife
TTITLE4=Sweet Georgia Brown
TTITLE5=Blue moon
TTITLE6=Mahogany Hall stromp
TTITLE7=C'est si bon
TTITLE8=La vie en rose
TTITLE9=Tenderly
TTITLE10=Ole Miss Blues
TTITLE11=That's my desire
TTITLE12=Blues
TTITLE13=You'll never walk alone
EXTD=
EXTT0=
EXTT1=
EXTT2=
EXTT3=
EXTT4=
EXTT5=
EXTT6=
EXTT7=
EXTT8=
EXTT9=
EXTT10=
EXTT11=
EXTT12=
EXTT13=
PLAYORDER=
